#!OML:ASF X:\für Bonn\!DataBase\2005_08_12_Daniel\c3d\Daniel.ASF
:FULLY-SPECIFIED
:DEGREES
106
root 1.3399 17.6987 -16.0758 356.802 10.0795 -0.214641
lowerback 40.8302 -1.33001 6.19287
upperback 14.6928 0.822532 -1.29586
thorax -3.11874 0.828314 -4.85492
lowerneck 8.89829 -5.03109 -0.0186732
upperneck 14.1578 -6.92494 4.67601
head 3.26192 -3.22842 1.52457
rclavicle -9.93923e-015 -3.18055e-015
rhumerus 193.318 -167.463 -270.522
rradius 12.9712
rwrist 27.5478
rhand -20.9661 13.2341
rfingers 7.12502
rthumb 5.40712 -16.6769
lclavicle -9.93923e-015 -3.18055e-015
lhumerus -22.6601 0.451094 88.2458
lradius 55.3425
lwrist -1.41848
lhand -12.1032 -9.01781
lfingers 7.12502
lthumb 13.9576 20.4937
rfemur -9.48539 6.7317 13.868
rtibia 23.8402
rfoot -14.7197 -11.7361
rtoes -13.0351
lfemur -18.3004 -14.2551 -19.1108
ltibia 33.9004
lfoot -12.0969 -2.03223
ltoes -11.6298
107
root 1.32019 17.6983 -16.1157 357.124 10.2802 -0.173684
lowerback 41.6815 -1.45021 6.48041
upperback 14.7871 0.854342 -1.25298
thorax -3.24463 0.858515 -4.96599
lowerneck 8.77852 -5.16097 -0.108046
upperneck 13.7517 -7.10087 4.85687
head 3.1586 -3.32042 1.59776
rclavicle 1.51076e-014 1.07344e-014
rhumerus 194.166 -166.72 -270.583
rradius 12.8229
rwrist 28.1135
rhand -21.0361 13.3558
rfingers 7.12502
rthumb 5.33952 -16.5569
lclavicle 1.51076e-014 1.07344e-014
lhumerus -22.8285 0.108675 88.3132
lradius 55.4904
lwrist -1.46099
lhand -12.1445 -9.17425
lfingers 7.12502
lthumb 13.9177 20.34
rfemur -10.072 6.53986 13.7913
rtibia 24.0458
rfoot -14.6802 -11.801
rtoes -12.9696
lfemur -18.8739 -14.3526 -18.993
ltibia 33.8972
lfoot -11.867 -2.12442
ltoes -11.6282
108
root 1.301 17.6974 -16.1545 357.452 10.4561 -0.147646
lowerback 42.5369 -1.56987 6.80663
upperback 14.8748 0.905805 -1.23435
thorax -3.36718 0.900865 -5.12921
lowerneck 8.70689 -5.32664 -0.050587
upperneck 13.3041 -7.30315 4.95431
head 3.02411 -3.42216 1.61955
rclavicle -2.50469e-014 3.37934e-014
rhumerus 195.098 -165.771 -270.758
rradius 12.5945
rwrist 28.7808
rhand -21.1066 13.4685
rfingers 7.12502
rthumb 5.27139 -16.446
lclavicle -2.50469e-014 3.37934e-014
lhumerus -23.0208 -0.357059 88.3241
lradius 55.6213
lwrist -1.43187
lhand -12.1408 -9.27276
lfingers 7.12502
lthumb 13.9213 20.2412
rfemur -10.6864 6.29291 13.7281
rtibia 24.2747
rfoot -14.5872 -11.7805
rtoes -12.8039
lfemur -19.4478 -14.4762 -18.8563
ltibia 33.8921
lfoot -11.6464 -2.16703
ltoes -11.7077
109
root 1.28183 17.6968 -16.1933 357.762 10.6393 -0.104669
lowerback 43.4316 -1.69157 7.09771
upperback 14.9592 0.951676 -1.2098
thorax -3.49711 0.938623 -5.26535
lowerneck 8.61484 -5.48669 0.06047
upperneck 12.855 -7.49116 5.00516
head 2.88846 -3.51599 1.61663
rclavicle -1.98785e-014 2.50469e-014
rhumerus 196.046 -164.962 -270.899
rradius 12.3849
rwrist 29.2828
rhand -21.1233 13.5896
rfingers 7.12502
rthumb 5.25531 -16.3252
lclavicle -1.98785e-014 2.50469e-014
lhumerus -23.2071 -0.785331 88.3266
lradius 55.7075
lwrist -1.4965
lhand -12.1148 -9.3695
lfingers 7.12502
lthumb 13.9463 20.1428
rfemur -11.2799 6.07591 13.6518
rtibia 24.5179
rfoot -14.548 -11.784
rtoes -12.8104
lfemur -19.993 -14.6403 -18.7429
ltibia 33.8849
lfoot -11.4322 -2.17562
ltoes -11.7871
110
root 1.26283 17.6947 -16.2322 358.11 10.8067 -0.0448869
lowerback 44.3091 -1.80353 7.36439
upperback 15.0243 1.00457 -1.17858
thorax -3.63518 0.977015 -5.38424
lowerneck 8.60784 -5.63942 0.112868
upperneck 12.3665 -7.67108 5.08795
head 2.72977 -3.61043 1.63729
rclavicle -1.19271e-014 -2.18663e-014
rhumerus 197.004 -164.208 -271.023
rradius 12.1591
rwrist 29.6556
rhand -21.1534 13.7655
rfingers 7.12502
rthumb 5.22625 -16.15
lclavicle -1.19271e-014 -2.18663e-014
lhumerus -23.4229 -1.25546 88.3249
lradius 55.7834
lwrist -1.49483
lhand -12.0471 -9.33191
lfingers 7.12502
lthumb 14.0117 20.1759
rfemur -11.9248 5.83689 13.5497
rtibia 24.7702
rfoot -14.4746 -11.7641
rtoes -12.5987
lfemur -20.5788 -14.8511 -18.6249
ltibia 33.8799
lfoot -11.2352 -2.13518
ltoes -11.864
111
root 1.24363 17.6929 -16.2708 358.454 10.9829 -0.00249302
lowerback 45.1746 -1.91946 7.65129
upperback 15.1062 1.06719 -1.13273
thorax -3.74056 1.02193 -5.50026
lowerneck 8.53569 -5.81482 0.232649
upperneck 11.9036 -7.87284 5.09084
head 2.58569 -3.71325 1.61878
rclavicle 4.77083e-015 1.31198e-014
rhumerus 198.091 -163.242 -271.243
rradius 11.8432
rwrist 30.3064
rhand -21.263 13.9543
rfingers 7.12502
rthumb 5.12042 -15.9639
lclavicle 4.77083e-015 1.31198e-014
lhumerus -23.5936 -1.77999 88.3193
lradius 55.8036
lwrist -1.47681
lhand -11.9361 -9.32969
lfingers 7.12502
lthumb 14.1186 20.1706
rfemur -12.5774 5.59216 13.4759
rtibia 25.0384
rfoot -14.3962 -11.7434
rtoes -12.4282
lfemur -21.1675 -15.0024 -18.4927
ltibia 33.8752
lfoot -11.0157 -2.16011
ltoes -11.7854
112
root 1.22507 17.691 -16.3083 358.821 11.1386 0.041867
lowerback 46.032 -2.03393 7.92206
upperback 15.1794 1.13062 -1.07592
thorax -3.84552 1.06515 -5.59602
lowerneck 8.49434 -5.96784 0.275702
upperneck 11.4112 -8.05075 5.12669
head 2.43178 -3.80868 1.62582
rclavicle 1.82882e-014 -1.19271e-015
rhumerus 199.151 -162.518 -271.369
rradius 11.5691
rwrist 30.7643
rhand -21.3976 14.1229
rfingers 7.12502
rthumb 4.99041 -15.7983
lclavicle 1.82882e-014 -1.19271e-015
lhumerus -23.7749 -2.29305 88.3448
lradius 55.8205
lwrist -1.47744
lhand -11.8079 -9.21437
lfingers 7.12502
lthumb 14.2421 20.2773
rfemur -13.2606 5.29427 13.3994
rtibia 25.3208
rfoot -14.3287 -11.6541
rtoes -12.441
lfemur -21.7785 -15.1907 -18.3541
ltibia 33.8819
lfoot -10.8131 -2.11406
ltoes -11.8669
113
root 1.2067 17.6886 -16.3459 359.18 11.2876 0.103023
lowerback 47.8624 -2.26318 8.24241
upperback 14.32 1.22228 -1.24222
thorax -3.95896 1.11966 -5.66464
lowerneck 8.3918 -6.13058 0.393806
upperneck 10.9612 -8.23908 5.14472
head 2.29949 -3.90524 1.61271
rclavicle 1.03368e-014 1.35174e-014
rhumerus 200.41 -161.308 -271.797
rradius 11.1796
rwrist 31.7293
rhand -21.5663 14.361
rfingers 7.12502
rthumb 4.82755 -15.564
lclavicle 1.03368e-014 1.35174e-014
lhumerus -23.9027 -2.8861 88.3262
lradius 55.7751
lwrist -1.49216
lhand -11.6388 -9.04292
lfingers 7.12502
lthumb 14.4051 20.4372
rfemur -13.9541 5.00327 13.3019
rtibia 25.6281
rfoot -14.2455 -11.5721
rtoes -12.2385
lfemur -22.3841 -15.3917 -18.2253
ltibia 33.8991
lfoot -10.6333 -2.06051
ltoes -11.8706
114
root 1.18886 17.685 -16.3817 359.563 11.4217 0.165512
lowerback 48.7464 -2.38655 8.51253
upperback 14.3442 1.29476 -1.21704
thorax -4.03453 1.16849 -5.77544
lowerneck 8.34391 -6.29379 0.49464
upperneck 10.4693 -8.424 5.13854
head 2.14428 -4.00347 1.59742
rclavicle 1.35174e-014 1.59028e-014
rhumerus 201.66 -160.249 -272.146
rradius 10.8288
rwrist 32.5645
rhand -21.6799 14.5835
rfingers 7.12502
rthumb 4.71791 -15.344
lclavicle 1.35174e-014 1.59028e-014
lhumerus -24.0495 -3.5378 88.3263
lradius 55.7283
lwrist -1.44797
lhand -11.502 -8.85633
lfingers 7.12502
lthumb 14.5369 20.6143
rfemur -14.6787 4.64494 13.2124
rtibia 25.9576
rfoot -14.1507 -11.4095
rtoes -12.1878
lfemur -23.023 -15.5411 -18.0994
ltibia 33.9334
lfoot -10.4427 -2.02884
ltoes -11.9454
115
root 1.1713 17.6808 -16.4175 359.927 11.5528 0.24461
lowerback 49.6816 -2.52145 8.76948
upperback 14.3544 1.35855 -1.20187
thorax -4.1242 1.21253 -5.88557
lowerneck 8.26427 -6.45498 0.640885
upperneck 9.98483 -8.60254 5.08648
head 1.99293 -4.09759 1.55941
rclavicle -4.85035e-014 -1.74931e-014
rhumerus 203.116 -158.825 -272.771
rradius 10.3709
rwrist 33.8817
rhand -21.8404 14.8136
rfingers 7.12502
rthumb 4.56284 -15.1172
lclavicle -4.85035e-014 -1.74931e-014
lhumerus -24.1809 -4.18759 88.3032
lradius 55.6519
lwrist -1.40466
lhand -11.3421 -8.64701
lfingers 7.12502
lthumb 14.6909 20.8125
rfemur -15.4067 4.22893 13.1107
rtibia 26.3208
rfoot -14.0405 -11.1886
rtoes -12.1485
lfemur -23.6348 -15.6803 -17.9972
ltibia 33.9775
lfoot -10.2655 -2.00459
ltoes -11.9461
116
root 1.1538 17.6755 -16.4506 360.321 11.6703 0.307804
lowerback 50.5975 -2.65237 9.02584
upperback 14.3315 1.43121 -1.18171
thorax -4.23677 1.25719 -5.99281
lowerneck 8.22339 -6.60292 0.740586
upperneck 9.52803 -8.76956 5.08167
head 1.84955 -4.1872 1.5461
rclavicle -1.66979e-014 -1.35174e-014
rhumerus 204.339 -158.749 -272.775
rradius 9.89912
rwrist 33.8777
rhand -22.0726 14.8135
rfingers 7.12502
rthumb 4.33863 -15.1221
lclavicle -1.66979e-014 -1.35174e-014
lhumerus -24.3652 -4.88228 88.2726
lradius 55.5451
lwrist -1.38745
lhand -11.2034 -8.46588
lfingers 7.12502
lthumb 14.8245 20.9838
rfemur -16.1704 3.82853 13.028
rtibia 26.7023
rfoot -13.9455 -10.9549
rtoes -12.0401
lfemur -24.2905 -15.8259 -17.8572
ltibia 34.0521
lfoot -10.1109 -1.98842
ltoes -11.9358
117
root 1.1373 17.6697 -16.4822 360.685 11.7727 0.387047
lowerback 51.5269 -2.79054 9.26737
upperback 14.334 1.49408 -1.17467
thorax -4.31466 1.30039 -6.10147
lowerneck 8.14796 -6.75366 0.905083
upperneck 9.0423 -8.93353 5.01439
head 1.69661 -4.27494 1.50202
rclavicle 3.65764e-014 -4.77083e-014
rhumerus 205.646 -158.693 -272.805
rradius 9.42844
rwrist 33.8881
rhand -22.3146 14.7491
rfingers 7.12502
rthumb 4.10496 -15.1911
lclavicle 3.65764e-014 -4.77083e-014
lhumerus -24.4842 -5.57433 88.2355
lradius 55.3912
lwrist -1.36925
lhand -11.115 -8.31526
lfingers 7.12502
lthumb 14.9097 21.1282
rfemur -16.9187 3.4072 12.9385
rtibia 27.1104
rfoot -13.8467 -10.6997
rtoes -11.9364
lfemur -24.9157 -15.9356 -17.7499
ltibia 34.1486
lfoot -9.95272 -1.96703
ltoes -11.8716
118
root 1.12041 17.6638 -16.5134 361.079 11.8434 0.450246
lowerback 52.4745 -2.91419 9.52158
upperback 14.2749 1.58712 -1.17353
thorax -4.44825 1.35258 -6.23364
lowerneck 8.05913 -6.90549 1.05018
upperneck 8.65051 -9.10563 4.96779
head 1.57934 -4.36454 1.46682
rclavicle 9.54166e-015 -7.95139e-016
rhumerus 206.925 -158.601 -272.8
rradius 8.92185
rwrist 33.975
rhand -22.5121 14.6077
rfingers 7.12502
rthumb 3.91427 -15.3361
lclavicle 9.54166e-015 -7.95139e-016
lhumerus -24.6769 -6.34397 88.1992
lradius 55.2252
lwrist -1.35537
lhand -11.1067 -8.15846
lfingers 7.12502
lthumb 14.9177 21.2844
rfemur -17.7197 2.9515 12.8796
rtibia 27.5415
rfoot -13.7182 -10.391
rtoes -11.9219
lfemur -25.5847 -15.9606 -17.6225
ltibia 34.2721
lfoot -9.82802 -1.99166
ltoes -11.9529
